<?xml version="1.0" encoding="UTF-8"?>
<svg version="1.1" xmlns="http://www.w3.org/2000/svg" width="561" height="685">
<path d="M0 0 C185.13 0 370.26 0 561 0 C561 226.05 561 452.1 561 685 C375.87 685 190.74 685 0 685 C0 458.95 0 232.9 0 0 Z " fill="#FEFDF7" transform="translate(0,0)"/>
<path d="M0 0 C185.13 0 370.26 0 561 0 C561 226.05 561 452.1 561 685 C375.87 685 190.74 685 0 685 C0 458.95 0 232.9 0 0 Z M115.9453125 30.5390625 C103.23160285 46.62267109 98.43081934 65.60978511 98.66381836 85.75854492 C98.68744575 87.93250815 98.68434395 90.10523693 98.67773438 92.27929688 C98.70247624 106.07103841 100.37921561 119.22904224 104.25 132.5 C104.71623779 134.12252686 104.71623779 134.12252686 105.19189453 135.77783203 C107.63181698 144.09648544 110.42608086 152.09387285 114 160 C114.32194336 160.72848145 114.64388672 161.45696289 114.97558594 162.20751953 C122.82356187 179.87460794 132.49039043 196.68509141 145.625 211 C148 214 148 214 147.91796875 215.89453125 C146.67199606 218.75231543 144.87490572 220.46520743 142.6875 222.6875 C121.75195664 244.87229932 107.67045714 274.4211481 101 304 C100.80535156 304.81404297 100.61070313 305.62808594 100.41015625 306.46679688 C97.17779872 320.42086322 96.60667684 334.24089908 96.5625 348.5 C96.5532399 349.77124725 96.5532399 349.77124725 96.54379272 351.06817627 C96.47419723 365.91917039 98.35549268 379.73566594 102.6875 394 C102.93661133 394.82814209 103.18572266 395.65628418 103.44238281 396.50952148 C106.38998212 405.85821053 110.5561857 414.83427854 116 423 C114.47632812 423.67482422 114.47632812 423.67482422 112.921875 424.36328125 C94.1818037 432.98142867 83.11808652 445.40659133 75.87890625 464.9519043 C73.6201138 471.528085 72.69507659 478.08778148 72 485 C71.23856689 484.98428955 70.47713379 484.9685791 69.69262695 484.95239258 C66.2326606 484.88991547 62.7728131 484.85096828 59.3125 484.8125 C58.11431641 484.78736328 56.91613281 484.76222656 55.68164062 484.73632812 C54.52470703 484.72666016 53.36777344 484.71699219 52.17578125 484.70703125 C51.11270752 484.6913208 50.04963379 484.67561035 48.9543457 484.65942383 C45.5236238 485.05491652 43.7225483 485.89433703 41 488 C38.92709947 491.03354256 38.52817801 494.09046772 38.02734375 497.69140625 C37.76800049 499.52372803 37.76800049 499.52372803 37.50341797 501.39306641 C37.31452556 502.78284323 37.12589745 504.17265599 36.9375 505.5625 C36.73104659 507.04872308 36.52415972 508.534886 36.31689453 510.02099609 C35.68717102 514.56036766 35.06992008 519.10137727 34.45489502 523.64276123 C34.04275707 526.68444216 33.62931192 529.72594286 33.21538448 532.76738071 C32.02972199 541.48015893 30.84999179 550.19373097 29.67421341 558.90784836 C29.47624025 560.37481643 29.27814992 561.84176869 29.07993698 563.30870438 C27.07402708 578.15449122 25.08316803 593.00231294 23.25390625 607.87109375 C23.13127411 608.84543365 23.00864197 609.81977356 22.8822937 610.82363892 C21.07161998 625.83664328 19.37252248 640.63306124 29 653.25 C37.48848545 662.04101009 47.45313101 663.83665045 59.11206055 664.59716797 C63.01627861 664.85972469 66.91734355 665.14534133 70.81787109 665.45800781 C86.36888567 666.70236425 101.92192765 667.66901686 117.5 668.5 C132.06080311 669.27671881 146.60280945 670.1344983 161.13684082 671.32116699 C185.80636997 673.31581762 206.61332184 669.68171605 230.25 662.375 C231.14847656 662.09841553 232.04695312 661.82183105 232.97265625 661.53686523 C241.99572346 658.60627418 248.02336272 654.31542372 252.75 645.875 C260.90055001 627.12873497 253.16042386 599.47937153 250.62841797 579.89550781 C250.07476937 575.60730836 249.54853502 571.31664411 249.03515625 567.0234375 C248.77349036 564.84895197 248.51177681 562.67447218 248.25 560.5 C248.13487061 559.53465332 248.01974121 558.56930664 247.90112305 557.57470703 C247.79453369 556.71474121 247.68794434 555.85477539 247.578125 554.96875 C247.44519043 553.87723633 247.44519043 553.87723633 247.30957031 552.76367188 C247.06903633 550.8998657 247.06903633 550.8998657 246 549 C246.66 549 247.32 549 248 549 C248.226875 549.70125 248.45375 550.4025 248.6875 551.125 C253.44171903 561.53900359 264.77176329 567.82614556 275 572 C286.73038864 576.11969926 298.82250561 575.70912202 311 574 C311 576.31 311 578.62 311 581 C309.329375 581.0928125 309.329375 581.0928125 307.625 581.1875 C296.90558279 582.55110078 287.27893996 589.73469228 280.8125 598.0625 C273.28804143 609.07462674 270.41599471 619.8305015 272 633 C274.72326542 644.85728006 281.91186587 653.75687481 291.7734375 660.69140625 C309.57766629 671.1552951 329.61128929 670.20549005 349.56176758 670.24023438 C352.89885895 670.24988822 356.23531932 670.28097057 359.57226562 670.3125 C377.20111284 670.40033636 394.99609413 669.50170985 411.9375 664.1875 C412.7939209 663.92960693 413.6503418 663.67171387 414.53271484 663.40600586 C431.42051515 658.20453811 445.11370014 651.33181191 458 639 C458.61488281 638.44828125 459.22976563 637.8965625 459.86328125 637.328125 C463.79904899 633.67283726 466.87452279 629.57499171 469.9375 625.1875 C470.33976807 624.61161133 470.74203613 624.03572266 471.15649414 623.44238281 C473.32630034 620.48759399 473.32630034 620.48759399 474 617 C474.515625 617.15984375 475.03125 617.3196875 475.5625 617.484375 C489.91115092 620.51966654 504.76210898 616.58451162 517 609 C529.46523115 599.69120077 537.15254149 587.28085488 540 572 C541.65412256 554.88263966 538.63179719 540.51538657 528.22265625 526.62890625 C520.76168204 517.58113998 510.60085241 511.12534701 499 509 C495.58121824 508.69932307 492.18111718 508.59484237 488.75 508.5625 C487.91025635 508.55226807 487.0705127 508.54203613 486.20532227 508.53149414 C480.5130982 508.61191979 476.22152968 509.73212363 471 512 C470.731875 511.28714844 470.46375 510.57429688 470.1875 509.83984375 C464.36512357 495.91593696 454.34022892 483.32042719 444.40332031 472.08618164 C441 468.2016895 441 468.2016895 441 466 C441.93199219 465.53851563 442.86398437 465.07703125 443.82421875 464.6015625 C470.96829272 450.85200779 491.59451501 428.54937759 501.8125 399.6875 C504.61903009 390.63668322 506.35808413 381.32316583 508 372 C508.17797119 371.05817871 508.35594238 370.11635742 508.53930664 369.14599609 C509.40996078 363.200448 509.19777308 357.18574777 509.1875 351.1875 C509.18656342 350.48759949 509.18562683 349.78769897 509.18466187 349.06658936 C509.15418033 338.57883738 508.82702889 328.35914173 507 318 C506.84934082 317.08653809 506.69868164 316.17307617 506.54345703 315.23193359 C500.02577747 276.34499048 482.91944231 243.42206964 457 214 C459.36466156 210.09316786 462.00861591 206.84252877 465.125 203.5 C488.59559031 177.79411538 501.94354157 145.64041303 509 112 C509.26941406 110.72511719 509.53882813 109.45023437 509.81640625 108.13671875 C514.22054424 82.91301935 511.32774632 55.86792987 496.78125 34.3671875 C488.64789887 23.55839191 478.25148468 18.03680814 465.03125 15.41015625 C445.3833592 12.75161432 427.14042981 18.76161363 411.4375 30.625 C376.77549945 58.01018553 355.64671321 102.06490039 348.296875 145.0234375 C347.89811459 149.02153525 347.9402351 152.98579073 348 157 C346.09927734 156.69255859 346.09927734 156.69255859 344.16015625 156.37890625 C342.46095548 156.10665861 340.7617357 155.83452954 339.0625 155.5625 C337.81629883 155.36043945 337.81629883 155.36043945 336.54492188 155.15429688 C334.03209931 154.75341857 331.51736828 154.37121446 329 154 C328.31389648 153.89631104 327.62779297 153.79262207 326.92089844 153.68579102 C319.3601884 152.68732515 311.73718365 152.8019339 304.125 152.8125 C303.02667343 152.81290787 303.02667343 152.81290787 301.90615845 152.81332397 C286.26970194 152.84003543 271.08916154 153.48228696 256 158 C255.98582031 157.18402344 255.97164062 156.36804688 255.95703125 155.52734375 C254.188741 111.60683724 233.3796397 65.71271126 201.640625 35.3046875 C186.04414251 21.6923729 168.96985928 14.09249749 147.96875 14.6875 C135.7464719 15.6498841 124.33957894 21.66900768 115.9453125 30.5390625 Z " fill="#E5F5FE" transform="translate(0,0)"/>
<path d="M0 0 C21.77088552 13.49794902 36.94784286 33.52882603 48.9296875 55.81640625 C49.2798291 56.46593262 49.6299707 57.11545898 49.99072266 57.78466797 C62.41128831 81.31305657 70.12309216 108.1987599 70.9296875 134.81640625 C71.89841797 134.52636719 71.89841797 134.52636719 72.88671875 134.23046875 C101.08876151 126.43729141 134.50477332 127.76730261 162.9296875 133.81640625 C162.89746094 132.5325 162.86523438 131.24859375 162.83203125 129.92578125 C162.83897938 124.83974692 163.52433496 120.0506567 164.4921875 115.06640625 C164.66782227 114.16172607 164.84345703 113.2570459 165.02441406 112.32495117 C173.05626535 73.27598008 195.08185644 29.17473284 228.4921875 5.87890625 C245.60095333 -5.29500062 263.19060424 -11.16580192 283.6796875 -6.99609375 C296.96542964 -3.50154097 306.75889015 3.44132144 314.2421875 15.06640625 C329.94596195 42.38970737 328.368361 73.85599987 320.76171875 103.5390625 C319.62874085 107.68217989 318.32271726 111.75415821 316.9296875 115.81640625 C316.59348389 116.81244873 316.59348389 116.81244873 316.25048828 117.82861328 C309.45875755 137.68615768 299.21999808 155.55859772 286.7421875 172.37890625 C286.26749023 173.02150391 285.79279297 173.66410156 285.30371094 174.32617188 C282.30386042 178.28324554 279.08174113 181.76561089 275.4519043 185.15600586 C273.82745506 186.92791913 272.9004162 188.6281736 271.9296875 190.81640625 C272.36249023 191.30326904 272.79529297 191.79013184 273.24121094 192.29174805 C310.78012117 234.81103787 326.64072782 286.39648479 323.9296875 342.81640625 C323.21721369 350.2852868 321.77268456 357.55042443 319.9296875 364.81640625 C319.74776855 365.54311523 319.56584961 366.26982422 319.37841797 367.01855469 C311.91743665 395.72899756 294.50473478 420.44663781 268.9296875 435.81640625 C264.6564057 438.26791453 260.32047024 440.58149065 255.9296875 442.81640625 C257.53776318 446.62547936 259.99316039 449.25745954 262.7421875 452.31640625 C285.9296875 478.8600433 285.9296875 478.8600433 285.9296875 488.81640625 C287.05117188 488.33171875 288.17265625 487.84703125 289.328125 487.34765625 C294.10855625 485.56576363 298.48653511 485.27714488 303.5546875 485.31640625 C304.42988037 485.32285156 305.30507324 485.32929688 306.20678711 485.3359375 C320.75126667 485.74109848 332.60163027 492.00581262 342.6796875 502.44140625 C353.82292966 516.02810633 356.5245143 531.79293741 354.9296875 548.81640625 C352.64253937 562.44977283 345.75311229 575.10980774 334.9296875 583.81640625 C323.92481822 591.28829154 313.62193678 594.96809412 300.3046875 594.94140625 C298.36722656 594.94527344 298.36722656 594.94527344 296.390625 594.94921875 C293.66742065 594.84471655 291.50052644 594.63855271 288.9296875 593.81640625 C288.67960937 594.52667969 288.42953125 595.23695313 288.171875 595.96875 C282.05376156 609.99423647 268.07580518 622.61203667 254.9296875 629.81640625 C253.99640625 630.3371875 253.063125 630.85796875 252.1015625 631.39453125 C244.34314847 635.50192691 236.3054785 638.30096417 227.9296875 640.81640625 C226.98996094 641.10386719 226.05023438 641.39132812 225.08203125 641.6875 C207.61267345 646.53870296 189.48651153 647.29085187 171.46923828 647.15258789 C168.1680476 647.12882245 164.86766211 647.13208205 161.56640625 647.13867188 C138.81516731 647.10916286 115.7164812 647.03307213 98.1171875 630.56640625 C89.98738081 622.04878192 86.4855676 611.79539398 86.49365234 600.14257812 C86.77304379 589.66420504 91.00346481 580.58047846 97.9296875 572.81640625 C98.6721875 571.97078125 99.4146875 571.12515625 100.1796875 570.25390625 C107.7085882 563.58056245 115.5516931 557.81640625 125.9296875 557.81640625 C125.9296875 555.50640625 125.9296875 553.19640625 125.9296875 550.81640625 C124.7540625 550.98140625 123.5784375 551.14640625 122.3671875 551.31640625 C103.60645338 553.3222709 87.69112001 550.49764577 72.4921875 538.87890625 C68.51681576 535.54369099 65.59830311 532.26409893 62.9296875 527.81640625 C62.9296875 527.15640625 62.9296875 526.49640625 62.9296875 525.81640625 C62.2696875 525.81640625 61.6096875 525.81640625 60.9296875 525.81640625 C61.21972656 526.97140625 61.50976562 528.12640625 61.80859375 529.31640625 C63.37934539 536.40067576 64.06274005 543.61440332 64.8671875 550.81640625 C65.2134045 553.8738622 65.5617452 556.93107466 65.91015625 559.98828125 C65.99592926 560.74550476 66.08170227 561.50272827 66.17007446 562.28289795 C66.68609992 566.80606588 67.24768255 571.32005826 67.85546875 575.83203125 C69.19535388 585.85695497 70.21269426 595.75624225 70.3046875 605.87890625 C70.31854492 606.76545898 70.33240234 607.65201172 70.34667969 608.56542969 C70.27720385 618.06167947 67.06781469 625.57734913 60.3671875 632.44140625 C52.23759446 638.74434999 40.21581928 640.57921819 30.41699219 643.15332031 C27.89533351 643.82556462 25.38612985 644.53565125 22.875 645.24609375 C14.21953874 647.60100342 6.01059537 649.18918378 -2.98046875 649.0703125 C-3.91425858 649.06373627 -4.8480484 649.05716003 -5.81013489 649.05038452 C-17.0710986 648.89619179 -28.29276326 648.06123247 -39.51953125 647.22113037 C-45.9142479 646.74263334 -52.31074906 646.28903565 -58.70703125 645.83203125 C-59.95866058 645.74190765 -61.21028992 645.65178406 -62.49984741 645.55892944 C-72.51885674 644.84193023 -82.54040382 644.2313137 -92.5703125 643.69140625 C-102.61770925 643.14165222 -112.65937964 642.54896652 -122.6953125 641.81640625 C-124.2431543 641.70981689 -124.2431543 641.70981689 -125.82226562 641.60107422 C-137.64765161 640.69890275 -147.98380092 638.58207225 -156.4453125 629.56640625 C-169.86303219 611.8412936 -161.91814874 584.03369856 -159.18969727 563.5703125 C-158.78585211 560.52203655 -158.39301304 557.47239365 -158.00076962 554.42260647 C-155.63976617 536.06839921 -153.10044005 517.74155898 -150.45186234 499.42676353 C-149.26886751 491.24639687 -148.11141088 483.06280136 -147.06047058 474.86427307 C-146.04728298 467.47119519 -146.04728298 467.47119519 -144.0703125 464.81640625 C-140.23079741 462.03881187 -137.59930667 461.4539088 -132.89453125 461.5234375 C-131.73759766 461.53310547 -130.58066406 461.54277344 -129.38867188 461.55273438 C-128.19048828 461.57787109 -126.99230469 461.60300781 -125.7578125 461.62890625 C-124.54029297 461.64244141 -123.32277344 461.65597656 -122.06835938 461.66992188 C-119.06855905 461.70521364 -116.06966275 461.75452144 -113.0703125 461.81640625 C-112.97862793 460.90600586 -112.88694336 459.99560547 -112.79248047 459.05761719 C-110.75348657 440.02127191 -102.56445033 422.20797072 -87.65625 409.80859375 C-81.86292057 405.56015217 -75.69657023 402.5500525 -69.0703125 399.81640625 C-69.70646484 398.84767578 -69.70646484 398.84767578 -70.35546875 397.859375 C-84.02946438 375.89082378 -88.50440976 351.00914973 -88.4453125 325.50390625 C-88.44476868 324.62100922 -88.44422485 323.73811218 -88.44366455 322.82846069 C-88.40314758 308.49598661 -87.47743196 294.78951226 -84.0703125 280.81640625 C-83.86132324 279.93082031 -83.65233398 279.04523438 -83.43701172 278.1328125 C-76.30967678 248.7051944 -62.20760902 221.85673302 -41.91674805 199.43310547 C-38.38465913 195.63157895 -38.38465913 195.63157895 -37.0703125 190.81640625 C-38.47830143 188.68839158 -38.47830143 188.68839158 -40.578125 186.68359375 C-44.91566909 182.06705943 -48.46576195 177.224632 -51.9453125 171.94140625 C-52.54682129 171.03011963 -53.14833008 170.11883301 -53.76806641 169.17993164 C-77.77386099 132.25064471 -93.39679069 84.55919126 -85.04418945 40.17333984 C-81.24362464 24.27793277 -72.36345836 8.53142834 -59.0703125 -1.18359375 C-40.13079141 -11.70554991 -18.78309367 -10.15508723 0 0 Z M218.24707031 39.34423828 C194.07384649 69.0186775 180.98202945 106.15236518 177.66333008 144.01733398 C177.31398076 147.68570857 177.01360171 149.69053494 174.9296875 152.81640625 C169.58423937 153.77802126 164.21052553 153.06303167 159.0546875 151.50390625 C130.81929099 143.17605054 98.16729896 144.45038066 70.15625 153.046875 C66.53889437 153.90960994 63.63296152 154.21969019 59.9296875 153.81640625 C57.5625 152.33984375 57.5625 152.33984375 55.9296875 149.81640625 C55.36096137 146.93759665 55.00917569 144.34428907 54.8046875 141.44140625 C54.65519621 139.80845108 54.50413938 138.17563851 54.3515625 136.54296875 C54.28130859 135.73762695 54.21105469 134.93228516 54.13867188 134.10253906 C50.37425311 92.92261233 33.59309823 50.14277314 2.0546875 22.37890625 C-10.42000437 12.41887559 -23.1930682 8.4100209 -39.0703125 9.81640625 C-46.8126378 11.4242701 -53.04487472 15.78401618 -58.0703125 21.81640625 C-71.68325601 43.78214616 -71.9681929 71.32022584 -66.4050293 95.94921875 C-58.49192808 128.2550235 -44.9039377 157.30127536 -21.98046875 181.59765625 C-18.46437271 185.68179235 -16.28346634 189.15245073 -16.54296875 194.7265625 C-17.63159271 199.04073893 -21.0070984 201.75849183 -24.0703125 204.81640625 C-51.6549632 233.99720142 -71.17217685 273.79046762 -71.23828125 314.69921875 C-71.24160965 315.43534393 -71.24493805 316.17146912 -71.24836731 316.92990112 C-71.25340238 318.48125592 -71.2557767 320.03262142 -71.25561523 321.58398438 C-71.25778719 323.91425249 -71.27593921 326.24403501 -71.29492188 328.57421875 C-71.38452138 351.97714197 -65.57763197 372.92241105 -53.0703125 392.81640625 C-52.71839844 393.4815625 -52.36648437 394.14671875 -52.00390625 394.83203125 C-50.92177547 396.7784174 -50.92177547 396.7784174 -48.0703125 398.81640625 C-44.64227004 399.56629054 -41.2545563 399.9683709 -37.765625 400.33984375 C-23.80667228 402.14004696 -10.38004691 409.28913082 -1.0703125 419.81640625 C0.16899425 421.69611541 1.32073367 423.61451526 2.47143555 425.54956055 C6.86931157 432.89061002 10.18234834 436.5986759 18.78515625 438.91015625 C20.16663453 439.21238653 21.54814764 439.5144576 22.9296875 439.81640625 C24.61420981 440.2398123 26.29774909 440.66714185 27.98046875 441.09765625 C37.2999169 443.40846397 46.59744671 445.14304311 56.1171875 446.37890625 C67.86030697 447.91863397 78.30162977 450.32249348 86.3671875 459.62890625 C87.140625 460.71171875 87.140625 460.71171875 87.9296875 461.81640625 C90.56780268 461.31506702 93.15478593 460.75623451 95.75 460.0625 C104.53401258 457.91322033 113.01650296 457.51894383 122.0546875 457.50390625 C123.83383545 457.49605103 123.83383545 457.49605103 125.64892578 457.48803711 C137.69870248 457.58542123 137.69870248 457.58542123 141.9296875 461.81640625 C142.61669718 468.91550629 142.61669718 468.91550629 140.33154297 471.91210938 C137.12221161 474.45660873 135.10526709 474.32823255 131.0390625 474.35546875 C130.04389618 474.37315811 130.04389618 474.37315811 129.02862549 474.39120483 C126.91207442 474.42639889 124.7965067 474.43561864 122.6796875 474.44140625 C107.98535223 474.55639069 95.80818941 476.00526405 83.5546875 485.06640625 C76.65975396 492.28966996 73.48201013 499.70066366 73.58984375 509.609375 C74.29682076 516.28096261 77.32163578 521.67713861 82.2421875 526.19140625 C93.16686581 534.56226365 105.56186689 535.95564292 118.9296875 534.81640625 C134.99450441 532.64080891 147.5313711 525.21472265 158.9296875 513.81640625 C166.1600082 513.23331587 166.1600082 513.23331587 168.9921875 515.37890625 C170.43135482 519.12074128 170.14783055 520.96963872 168.9296875 524.81640625 C164.4841345 530.70057322 158.3896062 534.7238075 152.42578125 538.92578125 C148.76928636 541.69533293 145.99824675 544.67928775 143.9296875 548.81640625 C143.80093328 550.4592449 143.72746443 552.10661397 143.68359375 553.75390625 C143.63428711 555.21957031 143.63428711 555.21957031 143.58398438 556.71484375 C143.52278977 558.78244025 143.46549749 560.85015595 143.41210938 562.91796875 C143.37794922 563.89507813 143.34378906 564.8721875 143.30859375 565.87890625 C143.2835376 566.77738281 143.25848145 567.67585937 143.23266602 568.6015625 C142.9296875 570.81640625 142.9296875 570.81640625 140.9296875 572.81640625 C138.64610012 573.1317866 136.35149397 573.36913453 134.0546875 573.56640625 C124.65326699 574.62282189 116.49396007 577.66343033 109.8671875 584.69140625 C105.16042805 590.75279403 103.28778066 596.62014993 103.59375 604.3046875 C104.65792552 612.26125566 108.53771218 617.15059914 114.640625 622.16015625 C125.39908044 629.94443118 140.79585691 629.96711663 153.609375 629.984375 C154.94864548 629.9893676 154.94864548 629.9893676 156.31497192 629.99446106 C158.1956532 629.99948929 160.07634326 630.00187067 161.95703125 630.00170898 C164.76318025 630.00387422 167.56892136 630.02201562 170.375 630.04101562 C202.70278592 630.14300387 237.26321851 626.75758809 261.8046875 603.56640625 C278.74070192 585.65906159 282.60668941 564.21712788 282.2421875 540.484375 C281.17367383 509.33274938 266.19351105 480.99266999 244.9296875 458.81640625 C244.300625 458.14738281 243.6715625 457.47835938 243.0234375 456.7890625 C240.33036058 453.99558578 237.8758434 451.78084883 234.6171875 449.62890625 C230.75444634 447.02380175 230.75444634 447.02380175 229.9296875 443.81640625 C229.8046875 440.37890625 229.8046875 440.37890625 230.9296875 436.81640625 C233.6275445 434.66913231 235.86996383 433.33330315 238.9296875 431.81640625 C239.51298828 431.52652832 240.09628906 431.23665039 240.69726562 430.93798828 C243.41566639 429.58770293 246.1355016 428.24037423 248.8581543 426.89868164 C268.03110975 417.36907379 284.67145518 403.83052107 294.9296875 384.81640625 C295.40019531 383.95789063 295.87070312 383.099375 296.35546875 382.21484375 C313.63345407 347.65887312 309.19859146 303.42689697 297.9296875 267.81640625 C289.19387887 241.95688764 275.80318883 219.89496749 256.6796875 200.5390625 C253.59708258 197.30108435 252.07797446 195.61176358 251.2421875 191.12890625 C252.0267788 187.34860271 253.35487777 185.6326044 255.9296875 182.81640625 C255.9296875 182.15640625 255.9296875 181.49640625 255.9296875 180.81640625 C256.5896875 180.81640625 257.2496875 180.81640625 257.9296875 180.81640625 C260.51233897 178.39187629 262.67996686 175.54676739 264.9296875 172.81640625 C265.76113281 171.82125 266.59257812 170.82609375 267.44921875 169.80078125 C295.91981918 135.08608399 310.27356133 93.63740502 307.9296875 48.81640625 C306.60671535 36.78273765 301.9531179 24.65037974 292.91796875 16.31640625 C287.64102549 12.33537244 281.58992344 9.2241758 274.9296875 8.81640625 C274.15367187 8.75453125 273.37765625 8.69265625 272.578125 8.62890625 C250.33709764 7.60338337 231.78668093 23.2443943 218.24707031 39.34423828 Z " fill="#3E72AC" transform="translate(185.0703125,23.18359375)"/>
<path d="M0 0 C46.03923627 1.10656103 92.01553014 3.56811656 138 6 C138.31494418 31.56609386 137.46231077 57.09745164 136.66760254 82.64801025 C136.52648561 87.23250768 136.39103396 91.81716568 136.25558567 96.40183353 C136.12330015 100.85879405 135.98785267 105.31565412 135.85142326 109.77248955 C135.78717235 111.88097954 135.72378272 113.98949597 135.66131783 116.09803963 C135.12383769 134.12599424 135.12383769 134.12599424 134.64038086 142.06420898 C134.56357338 143.34967873 134.56357338 143.34967873 134.48521423 144.66111755 C133.56741732 149.08518209 131.72086352 151.51942432 128 154 C124.87156554 154.46075398 121.69726505 154.3242236 118.5390625 154.3046875 C117.50633209 154.30081024 116.47360168 154.29693298 115.40957642 154.29293823 C98.01469915 154.07111867 80.64819443 152.58824151 63.30450439 151.33520508 C59.40052056 151.05507673 55.49599855 150.78292551 51.59144211 150.51091385 C42.39821284 149.8704138 33.20666892 149.21079286 24.01697922 148.52128983 C19.22499437 148.16210588 14.43218026 147.82358205 9.63769531 147.49902344 C7.66722537 147.35214497 5.69683609 147.20417673 3.7265625 147.0546875 C2.48959122 146.9798967 2.48959122 146.9798967 1.22763062 146.90359497 C-4.876368 146.40224137 -9.6366368 144.59969952 -13.875 139.9375 C-20.91394094 127.81487949 -14.86833492 106.03512042 -13 93 C-12.52720059 89.70054133 -12.05451989 86.40106569 -11.58203125 83.1015625 C-11.45334152 82.20320679 -11.32465179 81.30485107 -11.19206238 80.37927246 C-9.75447053 70.32083892 -8.37221437 60.2550312 -7 50.1875 C-6.80490341 48.75954102 -6.80490341 48.75954102 -6.60586548 47.30273438 C-4.9389907 35.09459418 -3.29988164 22.88531824 -1.84960938 10.64916992 C-1.74841797 9.80588135 -1.64722656 8.96259277 -1.54296875 8.09375 C-1.46071045 7.38927734 -1.37845215 6.68480469 -1.29370117 5.95898438 C-0.98925894 3.9283572 -0.52981668 1.9827189 0 0 Z " fill="#82BCF5" transform="translate(54,501)"/>
<path d="M0 0 C4.62162592 3.04607163 7.0436093 6.60582069 8.75 11.8125 C11.92872301 43.89542524 -6.29543363 77.97909846 -25.83691406 102.10083008 C-36.78676293 115.36437368 -36.78676293 115.36437368 -43.02734375 116.171875 C-47.03778024 115.72465057 -49.92224276 114.17090821 -53.3125 112.125 C-53.91126953 111.78533203 -54.51003906 111.44566406 -55.12695312 111.09570312 C-59.56706345 108.49388601 -63.89069019 105.53111963 -66.25 100.8125 C-67.93642086 70.93875902 -52.55682322 35.99196473 -33.25 13.8125 C-32.66992188 13.1215625 -32.08984375 12.430625 -31.4921875 11.71875 C-23.76425709 3.20682665 -11.52987151 -4.21283767 0 0 Z " fill="#FEC8C0" transform="translate(453.25,81.1875)"/>
<path d="M0 0 C18.91765304 10.48988344 28.48535484 35.69853198 34.47265625 55.37109375 C37.89384061 68.0992784 40.63033823 80.78495614 40.78515625 93.99609375 C40.82866211 95.24519531 40.82866211 95.24519531 40.87304688 96.51953125 C40.9132628 100.40500793 40.80456543 102.77512875 38.88671875 106.21875 C36.0075461 108.78577934 32.98926739 110.53479254 29.53515625 112.18359375 C28.92736328 112.49490234 28.31957031 112.80621094 27.69335938 113.12695312 C24.17821731 114.85229254 21.38820078 115.99918451 17.47265625 115.37109375 C-3.98728478 103.15270083 -16.93884201 67.61058029 -23.08984375 45.68359375 C-23.93346455 42.5868154 -24.74686352 39.48434684 -25.52734375 36.37109375 C-25.7085376 35.73550537 -25.88973145 35.09991699 -26.07641602 34.44506836 C-27.05922223 29.92479831 -26.84158206 25.22793428 -26.90234375 20.62109375 C-26.93972656 19.56148437 -26.97710937 18.501875 -27.015625 17.41015625 C-27.09382527 10.40688724 -26.15025145 5.75609551 -21.52734375 0.37109375 C-15.33075988 -5.1369808 -6.94074701 -3.10027185 0 0 Z " fill="#FEC7C0" transform="translate(173.52734375,83.62890625)"/>
<path d="M0 0 C6.27 0 12.54 0 19 0 C20.57466633 14.45596008 22.14014456 28.91288433 23.69381714 43.37111664 C24.41561909 50.08597244 25.14052727 56.80046436 25.87304688 63.51416016 C26.5807893 70.0037812 27.2801111 76.49426129 27.97381592 82.98539734 C28.2387663 85.45098173 28.50665388 87.91625247 28.77764893 90.38117981 C32.85606662 127.52916378 32.85606662 127.52916378 27 135 C22.14414281 138.56799942 15.57494133 139.76125944 9.8125 141.25 C8.79687988 141.51321045 8.79687988 141.51321045 7.76074219 141.78173828 C3.74094154 142.75859518 0.12009635 143.0684075 -4 143 C-4.1124774 130.28415871 -3.75807211 117.59197882 -3.37890625 104.8828125 C-3.31388919 102.65486079 -3.2490272 100.42690456 -3.18431091 98.19894409 C-3.04864067 93.54437187 -2.91149077 88.88984645 -2.77319336 84.23535156 C-2.59824346 78.34520297 -2.42637984 72.45496957 -2.25558567 66.56469917 C-2.12192939 61.96396798 -1.98688327 57.36327836 -1.85142326 52.76259995 C-1.78770496 50.59506107 -1.72432199 48.4275123 -1.66131783 46.25995255 C-1.21160602 30.83527217 -0.64304299 15.41782201 0 0 Z " fill="#83BDF6" transform="translate(208,508)"/>
<path d="M0 0 C8.24183426 4.74408021 14.59115551 12.7450711 17.21801758 21.91430664 C19.82960521 33.86405163 18.30865667 47.39548108 12 57.8125 C7.36144069 64.29959408 1.65930493 68.71134662 -6.3125 70.0625 C-15.64492406 70.97159458 -22.51474096 69.15079731 -30 63.5 C-37.52492216 56.57007169 -40.8378616 46.90592271 -41.52734375 36.96484375 C-41.85814614 25.65140216 -39.32348 16.10257573 -32.3125 7.0625 C-23.22367232 -1.60955604 -12.07770893 -5.42188172 0 0 Z " fill="#3E72AC" transform="translate(400.3125,310.9375)"/>
<path d="M0 0 C9.12298593 5.46275569 13.73858118 12.57888512 17.046875 22.48046875 C19.82157485 33.94436026 18.54296414 46.07297323 12.75 56.34765625 C8.21433239 63.05609876 2.02981443 68.57809478 -6.0625 70.16015625 C-14.48183923 71.19799724 -21.09636064 70.13424536 -28.0625 65.16015625 C-36.53830706 57.67671816 -40.20690199 47.63835472 -41.3203125 36.60546875 C-41.75470947 26.61433835 -39.18952806 16.6202288 -32.69921875 8.87109375 C-23.72409364 -0.51101794 -12.85931064 -5.75989956 0 0 Z " fill="#3E73AC" transform="translate(226.0625,310.83984375)"/>
<path d="M0 0 C5.93469111 5.01760741 9.50285698 11.48118118 10.75390625 19.15234375 C11.12721114 28.50905027 8.44027675 35.76941014 2.5 42.9375 C-3.02109369 48.76761013 -9.10148562 51.67968117 -17.0703125 52.3359375 C-26.50198346 52.58770695 -33.43866578 51.68684697 -40.7734375 45.30078125 C-46.74305027 39.0918802 -49.90418566 31.99247776 -50.1875 23.375 C-49.9715079 17.72720658 -48.85644855 13.16894855 -44.75 9.0625 C-44.54375 8.32 -44.3375 7.5775 -44.125 6.8125 C-41.00731721 0.57713443 -34.07996783 -2.66826625 -27.75 -4.9375 C-18.03493809 -7.67764567 -8.23097285 -5.67176281 0 0 Z " fill="#FEC7C0" transform="translate(454.75,363.9375)"/>
<path d="M0 0 C5.00761931 3.55150306 8.88204399 8.38023276 10.88671875 14.234375 C12.76116733 25.27951289 11.10790363 34.36120905 5.125 43.6875 C-2.9666622 51.2514451 -12.17176466 52.96003426 -22.9140625 52.7109375 C-30.45347301 52.05066326 -35.57415709 48.96415437 -40.6875 43.5 C-47.22421008 35.15952795 -47.75902291 27.89126095 -46.75 17.375 C-45.85798378 14.02754127 -44.56983843 11.31060823 -42.75 8.375 C-42.38777344 7.74078125 -42.02554688 7.1065625 -41.65234375 6.453125 C-37.88046292 0.46925982 -32.46150348 -3.04708042 -25.6875 -4.9375 C-16.21161555 -6.59201951 -8.22154437 -4.98275417 0 0 Z " fill="#FEC8C0" transform="translate(184.75,363.625)"/>
<path d="M0 0 C7.26894852 6.65400494 11.40164091 16.57951968 12.1640625 26.29296875 C12.20331896 39.62707834 10.14200101 49.20175092 1.15234375 59.40234375 C-5.95138677 66.34121976 -15.07947107 69.75013231 -24.94921875 69.7734375 C-26.67884696 69.67723815 -28.40814001 69.57444344 -30.13671875 69.4609375 C-29.92450684 68.41824707 -29.92450684 68.41824707 -29.70800781 67.35449219 C-28.16246106 59.08894077 -27.82533496 51.1066387 -27.88671875 42.7109375 C-27.89087296 41.72164749 -27.89087296 41.72164749 -27.89511108 40.71237183 C-27.96972878 25.55028464 -29.94911418 11.25142272 -33.13671875 -3.5390625 C-23.08000636 -10.24353743 -9.17910055 -6.61163732 0 0 Z " fill="#FDFCF7" transform="translate(511.13671875,531.5390625)"/>
<path d="M0 0 C1.33611328 -0.02416992 1.33611328 -0.02416992 2.69921875 -0.04882812 C15.0142338 -0.057765 25.22815474 4.20083369 34.234375 12.640625 C44.17035993 23.24345456 51.75 36.48493552 51.75 51.3125 C46.47 50.9825 41.19 50.6525 35.75 50.3125 C35.21375 48.37375 34.6775 46.435 34.125 44.4375 C30.82949295 33.87350528 26.40426749 26.11473088 16.75 20.3125 C8.63687914 16.1289386 -1.35295501 15.95317488 -10.0625 18.375 C-17.93387875 21.49466571 -22.82343177 27.08014843 -26.28515625 34.66796875 C-27.80481075 38.83317562 -28.56219475 42.93555747 -29.25 47.3125 C-34.53 47.3125 -39.81 47.3125 -45.25 47.3125 C-44.47995275 35.76179124 -40.81773326 25.8323962 -34.25 16.3125 C-33.82203125 15.67570312 -33.3940625 15.03890625 -32.953125 14.3828125 C-25.04045643 3.91016292 -12.55246478 -0.04463892 0 0 Z " fill="#83BDF5" transform="translate(134.25,438.6875)"/>
<path d="M0 0 C3.76606089 2.00425558 6.10348683 4.34850423 7.6953125 8.28125 C8.27479238 12.17204347 7.86728935 13.9439108 6.0703125 17.46875 C3.49972297 20.51286918 1.35244152 21.78515177 -2.3046875 23.28125 C-0.95181239 27.70884127 0.65454815 29.95995984 4.6953125 32.28125 C8.96563512 32.97876186 12.51498319 32.77961127 16.5078125 31.09375 C18.96961705 29.05396909 20.81389582 26.85948767 22.6953125 24.28125 C25.0703125 24.59375 25.0703125 24.59375 27.6953125 25.28125 C29.6953125 28.28125 29.6953125 28.28125 29.6953125 31.03125 C28.36129376 35.36681092 26.19999144 38.39791852 22.6953125 41.28125 C17.64991242 43.92057121 13.41504895 44.79913696 7.6953125 44.71875 C6.99051758 44.71697754 6.28572266 44.71520508 5.55957031 44.71337891 C0.05672959 44.57382338 -2.86759881 43.30653774 -7.3046875 40.28125 C-9.29403713 41.04083732 -9.29403713 41.04083732 -11.3046875 42.28125 C-18.65818026 45.40004654 -26.44208974 47.06133198 -34.1171875 44.03125 C-39.15444948 41.2656944 -42.89107586 38.61660206 -45.3046875 33.28125 C-45.6171875 30.09375 -45.6171875 30.09375 -45.3046875 27.28125 C-43.3046875 25.28125 -43.3046875 25.28125 -40.921875 24.9375 C-37.63100621 25.36973351 -36.69624954 26.41123492 -34.4296875 28.78125 C-31.59015111 31.41301544 -30.66911098 32.21731606 -26.7421875 32.90625 C-21.94926198 32.034809 -17.83430464 30.81086714 -14.3046875 27.28125 C-14.13781302 24.69770782 -14.13781302 24.69770782 -14.3046875 22.28125 C-15.4184375 21.70375 -16.5321875 21.12625 -17.6796875 20.53125 C-20.79040871 18.91828345 -22.06738595 17.58273268 -23.3046875 14.28125 C-23.82706304 11.20748236 -23.85232414 8.35349155 -23.3046875 5.28125 C-17.78149959 -1.88396675 -8.41190326 -2.62337322 0 0 Z " fill="#3C71AB" transform="translate(309.3046875,350.71875)"/>
<path d="M0 0 C0.87914062 0.23074219 1.75828125 0.46148437 2.6640625 0.69921875 C9.9005703 2.5245156 17.11281617 4.05757075 24.4921875 5.203125 C25.47670395 5.35688347 25.47670395 5.35688347 26.48110962 5.51374817 C29.78517608 6.02745755 33.08938754 6.52023853 36.40087891 6.98510742 C43.85692549 8.12372746 49.74624869 9.69792978 56 14 C55.25116679 17.44907686 54.33039629 18.94183679 51.8125 21.4375 C47.10083077 26.56776795 44.65087962 32.63012077 42 39 C41.34 39 40.68 39 40 39 C39.90203125 37.68644531 39.8040625 36.37289062 39.703125 35.01953125 C39.55300547 33.28377417 39.40191257 31.54810108 39.25 29.8125 C39.1571875 28.51602539 39.1571875 28.51602539 39.0625 27.19335938 C38.70729829 23.3305408 38.22315277 20.44918122 36.484375 16.94921875 C32.80934179 14.06582006 29.56626167 14.14373221 25 14 C23.57276611 13.92241455 23.57276611 13.92241455 22.11669922 13.84326172 C19.05753302 13.68188934 15.99863335 13.55531018 12.9375 13.4375 C11.88111328 13.39431641 10.82472656 13.35113281 9.73632812 13.30664062 C7.15765121 13.20162663 4.57889565 13.09947123 2 13 C1.66127487 11.58461283 1.32925376 10.16762037 1 8.75 C0.814375 7.96109375 0.62875 7.1721875 0.4375 6.359375 C0 4 0 4 0 0 Z " fill="#86BFF6" transform="translate(202,478)"/>
<path d="M0 0 C5.04939802 2.35058184 8.49965922 5.99931844 11 11 C11.039992 12.99960012 11.04346799 15.00047242 11 17 C-0.38380184 17.11858127 -11.64753762 16.86612792 -23 16 C-23.34428056 9.61168294 -23.34428056 9.61168294 -21.79296875 6.85546875 C-21.26316406 6.30503906 -20.73335938 5.75460937 -20.1875 5.1875 C-19.66542969 4.62417969 -19.14335938 4.06085938 -18.60546875 3.48046875 C-13.20114602 -1.50307946 -6.96676952 -0.64937668 0 0 Z " fill="#E9F5FE" transform="translate(143,471)"/>
<path d="M0 0 C4.0318506 1.3439502 5.32041925 2.42675465 7.375 6.125 C7.9375 9.125 7.9375 9.125 7.375 12.125 C5.37528288 14.99959336 3.88560972 16.75407801 0.40234375 17.609375 C-3.30100428 17.85857225 -5.26447388 17.42243405 -8.125 15.0625 C-10.0333934 11.32522959 -10.36464523 9.26701331 -9.625 5.125 C-6.49148819 1.45649837 -4.86447322 0.16774046 0 0 Z " fill="#FBFBF7" transform="translate(399.625,322.875)"/>
<path d="M0 0 C2.4375 1.625 2.4375 1.625 4 4 C4.59172793 8.06812955 4.37276489 10.27000208 2.5 13.9375 C-0.36052612 16.29743405 -2.32399572 16.73357225 -6.02734375 16.484375 C-9.51060972 15.62907801 -11.00028288 13.87459336 -13 11 C-13.7446324 7.02862719 -13.37266878 5.55900317 -11.125 2.1875 C-7.38445041 -1.66306575 -5.14450674 -1.1530791 0 0 Z " fill="#FAFBF7" transform="translate(229,324)"/>
<path d="M0 0 C2 2 2 2 2 8 C-8.23 7.67 -18.46 7.34 -29 7 C-29 6.67 -29 6.34 -29 6 C-19.43 6 -9.86 6 0 6 C0 4.02 0 2.04 0 0 Z " fill="#2A64A3" transform="translate(154,482)"/>
<path d="M0 0 C0.66 0 1.32 0 2 0 C1.84402344 0.59167969 1.68804687 1.18335938 1.52734375 1.79296875 C0.40704193 6.34094898 -0.02424786 9.39088463 1 14 C0.0625 16.8125 0.0625 16.8125 -1 19 C-1.66 19 -2.32 19 -3 19 C-3.23549167 12.52397908 -2.95300439 5.90600878 0 0 Z " fill="#326BA7" transform="translate(41,488)"/>
<path d="M0 0 C0.556875 0.268125 1.11375 0.53625 1.6875 0.8125 C0.6975 1.4725 -0.2925 2.1325 -1.3125 2.8125 C-1.6425 3.4725 -1.9725 4.1325 -2.3125 4.8125 C-4.375 5.9375 -4.375 5.9375 -6.3125 6.8125 C-5.20419747 12.26165409 -4.21235574 15.65265388 -0.3125 19.8125 C-4.98054506 18.33838051 -4.98054506 18.33838051 -6.44921875 16.01171875 C-7.91213784 12.28491583 -8.00326456 8.74078734 -7.3125 4.8125 C-3.63527835 -0.2947523 -3.63527835 -0.2947523 0 0 Z " fill="#2863A3" transform="translate(293.3125,351.1875)"/>
<path d="M0 0 C0.33 0 0.66 0 1 0 C0.85930804 2.12534659 0.71229079 4.25027529 0.5625 6.375 C0.48128906 7.55835938 0.40007812 8.74171875 0.31640625 9.9609375 C0 13 0 13 -1 15 C-1.66 15 -2.32 15 -3 15 C-3.33 15.66 -3.66 16.32 -4 17 C-2.91103333 11.24237834 -1.70663707 5.60752181 0 0 Z " fill="#2C67A5" transform="translate(466,587)"/>
<path d="M0 0 C0.66 0 1.32 0 2 0 C6 5.29411765 6 5.29411765 6 9 C5.01 9.33 4.02 9.66 3 10 C2.34 9.67 1.68 9.34 1 9 C0.5859375 6.93359375 0.5859375 6.93359375 0.375 4.4375 C0.30023438 3.61121094 0.22546875 2.78492188 0.1484375 1.93359375 C0.09945312 1.29550781 0.05046875 0.65742187 0 0 Z " fill="#DBE8F4" transform="translate(246,549)"/>
<path d="M0 0 C0 3.58912412 -0.66436554 4.10857029 -3 6.6875 C-3.556875 7.31011719 -4.11375 7.93273437 -4.6875 8.57421875 C-5.120625 9.04472656 -5.55375 9.51523437 -6 10 C-6.33 9.01 -6.66 8.02 -7 7 C-2.88888889 1.44444444 -2.88888889 1.44444444 0 0 Z " fill="#F3F9FD" transform="translate(128,472)"/>
<path d="M0 0 C3.3 0 6.6 0 10 0 C10 0.99 10 1.98 10 3 C2.25 3.125 2.25 3.125 0 2 C0 1.34 0 0.68 0 0 Z " fill="#DEECF8" transform="translate(102,667)"/>
<path d="M0 0 C0 3.58912412 -0.66436554 4.10857029 -3 6.6875 C-3.556875 7.31011719 -4.11375 7.93273437 -4.6875 8.57421875 C-5.120625 9.04472656 -5.55375 9.51523437 -6 10 C-6.33 9.01 -6.66 8.02 -7 7 C-4.69 4.69 -2.38 2.38 0 0 Z " fill="#F2F9FD" transform="translate(465,631)"/>
<path d="M0 0 C0 3 0 3 -2 6 C-3.65 5.67 -5.3 5.34 -7 5 C-4.87219421 2.65941363 -2.88437779 1.29299694 0 0 Z " fill="#376DA9" transform="translate(330,548)"/>
<path d="M0 0 C1.32 0.66 2.64 1.32 4 2 C3.1028125 2.309375 3.1028125 2.309375 2.1875 2.625 C-0.81018767 4.50926082 -1.61361776 6.81132084 -3 10 C-4 7 -4 7 -3.22265625 5.17578125 C-2.1484375 3.45052083 -1.07421875 1.72526042 0 0 Z " fill="#2E68A5" transform="translate(84,448)"/>
<path d="M0 0 C0.33 0.66 0.66 1.32 1 2 C1.66 2.33 2.32 2.66 3 3 C2.1028125 3.309375 2.1028125 3.309375 1.1875 3.625 C-1.81018767 5.50926082 -2.61361776 7.81132084 -4 11 C-5 8 -5 8 -4.00390625 5.95703125 C-3.52824219 5.24933594 -3.05257812 4.54164063 -2.5625 3.8125 C-2.08941406 3.09707031 -1.61632812 2.38164062 -1.12890625 1.64453125 C-0.75636719 1.10183594 -0.38382812 0.55914062 0 0 Z " fill="#2D66A5" transform="translate(126,245)"/>
<path d="M0 0 C0.66 0 1.32 0 2 0 C0.4169423 4.2742558 -2.50568404 6.26531794 -6 9 C-4.4722133 5.56247993 -2.49818944 2.81046312 0 0 Z " fill="#2D67A6" transform="translate(140,226)"/>
<path d="M0 0 C0.66 0.33 1.32 0.66 2 1 C-0.25 3.5625 -0.25 3.5625 -3 6 C-4.32 5.67 -5.64 5.34 -7 5 C-4.69 3.35 -2.38 1.7 0 0 Z " fill="#2A64A4" transform="translate(438,633)"/>
<path d="M0 0 C0.66 0.33 1.32 0.66 2 1 C0.26440562 4.057952 -1.38472619 6.63379989 -4 9 C-4.66 8.67 -5.32 8.34 -6 8 C-4.02 5.36 -2.04 2.72 0 0 Z " fill="#2964A5" transform="translate(475,415)"/>
<path d="M0 0 C0.66 0.33 1.32 0.66 2 1 C2 3.31 2 5.62 2 8 C1.01 8 0.02 8 -1 8 C-1.04241723 5.66705225 -1.04092937 3.33297433 -1 1 C-0.67 0.67 -0.34 0.34 0 0 Z " fill="#477AB1" transform="translate(98,360)"/>
<path d="M0 0 C0.66 0.33 1.32 0.66 2 1 C1.67 3.97 1.34 6.94 1 10 C0.67 10 0.34 10 0 10 C-1.125 3.375 -1.125 3.375 0 0 Z " fill="#2D66A5" transform="translate(506,110)"/>
<path d="M0 0 C0 0.99 0 1.98 0 3 C-2.875 3.125 -2.875 3.125 -6 3 C-6.66 2.34 -7.32 1.68 -8 1 C-5.10765685 0.17361624 -3.11257569 0 0 0 Z " fill="#487AB2" transform="translate(483,509)"/>
<path d="M0 0 C0.66 0.33 1.32 0.66 2 1 C0.35 2.65 -1.3 4.3 -3 6 C-3.33 4.68 -3.66 3.36 -4 2 C-2.125 0.9375 -2.125 0.9375 0 0 Z " fill="#336BA8" transform="translate(422,24)"/>
</svg>
